# xmcd
#
# Track frame offsets: 
#        150
#        16958
#        32515
#        47860
#        65990
#        80158
#        94085
#        110765
#        125353
#        142820
#
# Disc length: 2104 seconds
#
# Revision: 0
# Processed by: cddbd v1.5.2PL0 Copyright (c) Steve Scherf et al.
# Submitted via: ExactAudioCopy v0.95b3
#
DISCID=8908360a
DTITLE=Lise - In Deep Deep Trouble
DYEAR=1900
DGENRE=Country
TTITLE0=In Deep Deep Trouble
TTITLE1=You Just Can't Please Everbody
TTITLE2=I'm Gonna Cry
TTITLE3=I Have A Crush On You
TTITLE4=You'll Never Be Sorry
TTITLE5=Don't Believe My Heart Can Stand Another You
TTITLE6=You Were Never Meant To Be My Lover
TTITLE7=Hard As Stone
TTITLE8=Fooled Around And Fell In Love
TTITLE9=I Think Of You
EXTD=
EXTT0=
EXTT1=
EXTT2=
EXTT3=
EXTT4=
EXTT5=
EXTT6=
EXTT7=
EXTT8=
EXTT9=
PLAYORDER=
